<?xml version="1.0" encoding="UTF-8"?>
<!DOCTYPE score-partwise PUBLIC "-//Recordare//DTD MusicXML 3.1 Partwise//EN" "http://www.musicxml.org/dtds/partwise.dtd">
<score-partwise version="3.1">
  <work>
    <work-title>彼岸</work-title>
    </work>
  <identification>
    <creator type="composer">陈恬</creator>
    <encoding>
      <software>MuseScore 3.6.2</software>
      <encoding-date>2022-10-18</encoding-date>
      <supports element="accidental" type="yes"/>
      <supports element="beam" type="yes"/>
      <supports element="print" attribute="new-page" type="yes" value="yes"/>
      <supports element="print" attribute="new-system" type="yes" value="yes"/>
      <supports element="stem" type="yes"/>
      </encoding>
    </identification>
  <defaults>
    <scaling>
      <millimeters>7</millimeters>
      <tenths>40</tenths>
      </scaling>
    <page-layout>
      <page-height>1696.75</page-height>
      <page-width>1200.34</page-width>
      <page-margins type="even">
        <left-margin>119.429</left-margin>
        <right-margin>85.7143</right-margin>
        <top-margin>85.7143</top-margin>
        <bottom-margin>85.7143</bottom-margin>
        </page-margins>
      <page-margins type="odd">
        <left-margin>85.7143</left-margin>
        <right-margin>119.429</right-margin>
        <top-margin>85.7143</top-margin>
        <bottom-margin>85.7143</bottom-margin>
        </page-margins>
      </page-layout>
    <word-font font-family="Edwin" font-size="10"/>
    <lyric-font font-family="微软雅黑 Light" font-size="10"/>
    </defaults>
  <credit page="1">
    <credit-type>title</credit-type>
    <credit-words default-x="600.172" default-y="1611.03" justify="center" valign="top" font-family="微软雅黑" font-size="22">彼岸</credit-words>
    </credit>
  <credit page="1">
    <credit-type>subtitle</credit-type>
    <credit-words default-x="600.172" default-y="1553.89" justify="center" valign="top" font-family="微软雅黑" font-size="16">吟唱</credit-words>
    </credit>
  <credit page="1">
    <credit-type>composer</credit-type>
    <credit-words default-x="1080.91" default-y="1511.03" justify="right" valign="bottom" font-family="微软雅黑">陈恬</credit-words>
    </credit>
  <part-list>
    <part-group type="start" number="1">
      <group-symbol>bracket</group-symbol>
      </part-group>
    <part-group type="start" number="2">
      <group-symbol>square</group-symbol>
      </part-group>
    <score-part id="P1">
      <part-name>Ukulele</part-name>
      <part-abbreviation>Uk.</part-abbreviation>
      <score-instrument id="P1-I1">
        <instrument-name>Ukulele (Tablature)</instrument-name>
        </score-instrument>
      <midi-device id="P1-I1" port="1"></midi-device>
      <midi-instrument id="P1-I1">
        <midi-channel>1</midi-channel>
        <midi-program>25</midi-program>
        <volume>78.7402</volume>
        <pan>0</pan>
        </midi-instrument>
      </score-part>
    <part-group type="stop" number="2"/>
    <part-group type="stop" number="1"/>
    </part-list>
  <part id="P1">
    <measure number="1" width="931.91">
      <print>
        <system-layout>
          <system-margins>
            <left-margin>63.29</left-margin>
            <right-margin>0.00</right-margin>
            </system-margins>
          <top-system-distance>170.00</top-system-distance>
          </system-layout>
        <staff-layout number="2">
          <staff-distance>62.62</staff-distance>
          </staff-layout>
        </print>
      <attributes>
        <divisions>4</divisions>
        <key>
          <fifths>1</fifths>
          </key>
        <time>
          <beats>4</beats>
          <beat-type>4</beat-type>
          </time>
        <staves>2</staves>
        <clef number="1">
          <sign>TAB</sign>
          <line>5</line>
          </clef>
        <clef number="2">
          <sign>G</sign>
          <line>2</line>
          </clef>
        <staff-details number="1">
          <staff-lines>4</staff-lines>
          <staff-tuning line="1">
            <tuning-step>G</tuning-step>
            <tuning-octave>4</tuning-octave>
            </staff-tuning>
          <staff-tuning line="2">
            <tuning-step>C</tuning-step>
            <tuning-octave>4</tuning-octave>
            </staff-tuning>
          <staff-tuning line="3">
            <tuning-step>E</tuning-step>
            <tuning-octave>4</tuning-octave>
            </staff-tuning>
          <staff-tuning line="4">
            <tuning-step>A</tuning-step>
            <tuning-octave>4</tuning-octave>
            </staff-tuning>
          </staff-details>
        </attributes>
      <direction placement="above">
        <direction-type>
          <metronome parentheses="no" default-x="-49.28" relative-y="20.00">
            <beat-unit>quarter</beat-unit>
            <per-minute>60</per-minute>
            </metronome>
          </direction-type>
        <staff>1</staff>
        <sound tempo="60"/>
        </direction>
      <note default-x="116.88" default-y="-30.00">
        <pitch>
          <step>E</step>
          <octave>4</octave>
          </pitch>
        <duration>2</duration>
        <voice>1</voice>
        <type>eighth</type>
        <stem>down</stem>
        <staff>1</staff>
        <beam number="1">begin</beam>
        <notations>
          <technical>
            <string>3</string>
            <fret>4</fret>
            </technical>
          <arpeggiate default-x="-12.60" default-y="5.30"/>
          </notations>
        </note>
      <note default-x="116.88" default-y="-15.00">
        <chord/>
        <pitch>
          <step>G</step>
          <octave>4</octave>
          </pitch>
        <duration>2</duration>
        <voice>1</voice>
        <type>eighth</type>
        <stem>down</stem>
        <staff>1</staff>
        <notations>
          <technical>
            <string>2</string>
            <fret>3</fret>
            </technical>
          <arpeggiate default-x="-12.60" default-y="5.30"/>
          </notations>
        </note>
      <note default-x="116.88" default-y="-45.00">
        <chord/>
        <pitch>
          <step>G</step>
          <octave>4</octave>
          </pitch>
        <duration>2</duration>
        <voice>1</voice>
        <type>eighth</type>
        <stem>down</stem>
        <staff>1</staff>
        <notations>
          <technical>
            <string>4</string>
            <fret>0</fret>
            </technical>
          <arpeggiate default-x="-12.60" default-y="5.30"/>
          </notations>
        </note>
      <note default-x="116.88" default-y="0.00">
        <chord/>
        <pitch>
          <step>B</step>
          <octave>4</octave>
          </pitch>
        <duration>2</duration>
        <voice>1</voice>
        <type>eighth</type>
        <stem>down</stem>
        <staff>1</staff>
        <notations>
          <technical>
            <string>1</string>
            <fret>2</fret>
            </technical>
          <arpeggiate default-x="-12.60" default-y="5.30"/>
          </notations>
        </note>
      <note default-x="215.82" default-y="-30.00">
        <pitch>
          <step>E</step>
          <octave>4</octave>
          </pitch>
        <duration>2</duration>
        <voice>1</voice>
        <type>eighth</type>
        <stem>down</stem>
        <staff>1</staff>
        <beam number="1">end</beam>
        <notations>
          <technical>
            <string>3</string>
            <fret>4</fret>
            </technical>
          </notations>
        </note>
      <note default-x="314.76" default-y="-15.00">
        <pitch>
          <step>G</step>
          <octave>4</octave>
          </pitch>
        <duration>2</duration>
        <voice>1</voice>
        <type>eighth</type>
        <stem>down</stem>
        <staff>1</staff>
        <beam number="1">begin</beam>
        <notations>
          <technical>
            <string>2</string>
            <fret>3</fret>
            </technical>
          </notations>
        </note>
      <note default-x="413.69" default-y="0.00">
        <pitch>
          <step>E</step>
          <octave>5</octave>
          </pitch>
        <duration>1</duration>
        <voice>1</voice>
        <type>16th</type>
        <stem>down</stem>
        <staff>1</staff>
        <beam number="1">continue</beam>
        <beam number="2">begin</beam>
        <notations>
          <technical>
            <string>1</string>
            <fret>7</fret>
            </technical>
          <slide line-type="solid" number="1" type="start" default-y="5.49"/>
          </notations>
        </note>
      <note default-x="475.53" default-y="0.00">
        <pitch>
          <step>D</step>
          <octave>5</octave>
          </pitch>
        <duration>1</duration>
        <voice>1</voice>
        <type>16th</type>
        <stem>down</stem>
        <staff>1</staff>
        <beam number="1">end</beam>
        <beam number="2">end</beam>
        <notations>
          <technical>
            <string>1</string>
            <fret>5</fret>
            </technical>
          <slide line-type="solid" number="1" type="stop"/>
          </notations>
        </note>
      <note default-x="537.36" default-y="-30.00">
        <pitch>
          <step>D</step>
          <octave>4</octave>
          </pitch>
        <duration>2</duration>
        <voice>1</voice>
        <type>eighth</type>
        <stem>down</stem>
        <staff>1</staff>
        <beam number="1">begin</beam>
        <notations>
          <technical>
            <string>3</string>
            <fret>2</fret>
            </technical>
          <arpeggiate default-x="-12.60" default-y="5.30"/>
          </notations>
        </note>
      <note default-x="537.36" default-y="-15.00">
        <chord/>
        <pitch>
          <step>F</step>
          <alter>1</alter>
          <octave>4</octave>
          </pitch>
        <duration>2</duration>
        <voice>1</voice>
        <type>eighth</type>
        <stem>down</stem>
        <staff>1</staff>
        <notations>
          <technical>
            <string>2</string>
            <fret>2</fret>
            </technical>
          <arpeggiate default-x="-12.60" default-y="5.30"/>
          </notations>
        </note>
      <note default-x="537.36" default-y="-45.00">
        <chord/>
        <pitch>
          <step>G</step>
          <octave>4</octave>
          </pitch>
        <duration>2</duration>
        <voice>1</voice>
        <type>eighth</type>
        <stem>down</stem>
        <staff>1</staff>
        <notations>
          <technical>
            <string>4</string>
            <fret>0</fret>
            </technical>
          <arpeggiate default-x="-12.60" default-y="5.30"/>
          </notations>
        </note>
      <note default-x="537.36" default-y="0.00">
        <chord/>
        <pitch>
          <step>B</step>
          <octave>4</octave>
          </pitch>
        <duration>2</duration>
        <voice>1</voice>
        <type>eighth</type>
        <stem>down</stem>
        <staff>1</staff>
        <notations>
          <technical>
            <string>1</string>
            <fret>2</fret>
            </technical>
          <arpeggiate default-x="-12.60" default-y="5.30"/>
          </notations>
        </note>
      <note default-x="636.30" default-y="-30.00">
        <pitch>
          <step>D</step>
          <octave>4</octave>
          </pitch>
        <duration>2</duration>
        <voice>1</voice>
        <type>eighth</type>
        <stem>down</stem>
        <staff>1</staff>
        <beam number="1">end</beam>
        <notations>
          <technical>
            <string>3</string>
            <fret>2</fret>
            </technical>
          </notations>
        </note>
      <note default-x="735.24" default-y="-15.00">
        <pitch>
          <step>F</step>
          <alter>1</alter>
          <octave>4</octave>
          </pitch>
        <duration>2</duration>
        <voice>1</voice>
        <type>eighth</type>
        <stem>down</stem>
        <staff>1</staff>
        <beam number="1">begin</beam>
        <notations>
          <technical>
            <string>2</string>
            <fret>2</fret>
            </technical>
          </notations>
        </note>
      <note default-x="834.17" default-y="0.00">
        <pitch>
          <step>A</step>
          <octave>4</octave>
          </pitch>
        <duration>2</duration>
        <voice>1</voice>
        <type>eighth</type>
        <stem>down</stem>
        <staff>1</staff>
        <beam number="1">end</beam>
        <notations>
          <technical>
            <string>1</string>
            <fret>0</fret>
            </technical>
          </notations>
        </note>
      <backup>
        <duration>16</duration>
        </backup>
      <note default-x="113.88" default-y="-147.62">
        <pitch>
          <step>E</step>
          <octave>4</octave>
          </pitch>
        <duration>2</duration>
        <voice>5</voice>
        <type>eighth</type>
        <stem>up</stem>
        <staff>2</staff>
        <beam number="1">begin</beam>
        <notations>
          <arpeggiate default-x="-11.60" default-y="-14.70"/>
          </notations>
        </note>
      <note default-x="113.88" default-y="-137.62">
        <chord/>
        <pitch>
          <step>G</step>
          <octave>4</octave>
          </pitch>
        <duration>2</duration>
        <voice>5</voice>
        <type>eighth</type>
        <stem>up</stem>
        <staff>2</staff>
        <notations>
          <arpeggiate default-x="-11.60" default-y="-14.70"/>
          </notations>
        </note>
      <note default-x="125.78" default-y="-137.62">
        <chord/>
        <pitch>
          <step>G</step>
          <octave>4</octave>
          </pitch>
        <duration>2</duration>
        <voice>5</voice>
        <type>eighth</type>
        <stem>up</stem>
        <staff>2</staff>
        <notations>
          <arpeggiate default-x="-11.60" default-y="-14.70"/>
          </notations>
        </note>
      <note default-x="113.88" default-y="-127.62">
        <chord/>
        <pitch>
          <step>B</step>
          <octave>4</octave>
          </pitch>
        <duration>2</duration>
        <voice>5</voice>
        <type>eighth</type>
        <stem>up</stem>
        <staff>2</staff>
        <notations>
          <arpeggiate default-x="-11.60" default-y="-14.70"/>
          </notations>
        </note>
      <note default-x="212.82" default-y="-147.62">
        <pitch>
          <step>E</step>
          <octave>4</octave>
          </pitch>
        <duration>2</duration>
        <voice>5</voice>
        <type>eighth</type>
        <stem>up</stem>
        <staff>2</staff>
        <beam number="1">end</beam>
        </note>
      <note default-x="311.76" default-y="-137.62">
        <pitch>
          <step>G</step>
          <octave>4</octave>
          </pitch>
        <duration>2</duration>
        <voice>5</voice>
        <type>eighth</type>
        <stem>down</stem>
        <staff>2</staff>
        <beam number="1">begin</beam>
        </note>
      <note default-x="410.69" default-y="-112.62">
        <pitch>
          <step>E</step>
          <octave>5</octave>
          </pitch>
        <duration>1</duration>
        <voice>5</voice>
        <type>16th</type>
        <stem>down</stem>
        <staff>2</staff>
        <beam number="1">continue</beam>
        <beam number="2">begin</beam>
        <notations>
          <slide line-type="solid" number="1" type="start" default-y="-113.35"/>
          </notations>
        </note>
      <note default-x="472.53" default-y="-117.62">
        <pitch>
          <step>D</step>
          <octave>5</octave>
          </pitch>
        <duration>1</duration>
        <voice>5</voice>
        <type>16th</type>
        <stem>down</stem>
        <staff>2</staff>
        <beam number="1">end</beam>
        <beam number="2">end</beam>
        <notations>
          <slide line-type="solid" number="1" type="stop"/>
          </notations>
        </note>
      <note default-x="534.36" default-y="-152.62">
        <pitch>
          <step>D</step>
          <octave>4</octave>
          </pitch>
        <duration>2</duration>
        <voice>5</voice>
        <type>eighth</type>
        <stem>up</stem>
        <staff>2</staff>
        <beam number="1">begin</beam>
        <notations>
          <arpeggiate default-x="-11.60" default-y="-14.70"/>
          </notations>
        </note>
      <note default-x="534.36" default-y="-142.62">
        <chord/>
        <pitch>
          <step>F</step>
          <alter>1</alter>
          <octave>4</octave>
          </pitch>
        <duration>2</duration>
        <voice>5</voice>
        <type>eighth</type>
        <stem>up</stem>
        <staff>2</staff>
        <notations>
          <arpeggiate default-x="-11.60" default-y="-14.70"/>
          </notations>
        </note>
      <note default-x="546.26" default-y="-137.62">
        <chord/>
        <pitch>
          <step>G</step>
          <octave>4</octave>
          </pitch>
        <duration>2</duration>
        <voice>5</voice>
        <type>eighth</type>
        <stem>up</stem>
        <staff>2</staff>
        <notations>
          <arpeggiate default-x="-11.60" default-y="-14.70"/>
          </notations>
        </note>
      <note default-x="534.36" default-y="-127.62">
        <chord/>
        <pitch>
          <step>B</step>
          <octave>4</octave>
          </pitch>
        <duration>2</duration>
        <voice>5</voice>
        <type>eighth</type>
        <stem>up</stem>
        <staff>2</staff>
        <notations>
          <arpeggiate default-x="-11.60" default-y="-14.70"/>
          </notations>
        </note>
      <note default-x="633.30" default-y="-152.62">
        <pitch>
          <step>D</step>
          <octave>4</octave>
          </pitch>
        <duration>2</duration>
        <voice>5</voice>
        <type>eighth</type>
        <stem>up</stem>
        <staff>2</staff>
        <beam number="1">end</beam>
        </note>
      <note default-x="732.24" default-y="-142.62">
        <pitch>
          <step>F</step>
          <alter>1</alter>
          <octave>4</octave>
          </pitch>
        <duration>2</duration>
        <voice>5</voice>
        <type>eighth</type>
        <stem>up</stem>
        <staff>2</staff>
        <beam number="1">begin</beam>
        </note>
      <note default-x="831.17" default-y="-132.62">
        <pitch>
          <step>A</step>
          <octave>4</octave>
          </pitch>
        <duration>2</duration>
        <voice>5</voice>
        <type>eighth</type>
        <stem>up</stem>
        <staff>2</staff>
        <beam number="1">end</beam>
        </note>
      </measure>
    <measure number="2" width="597.98">
      <print new-system="yes">
        <system-layout>
          <system-margins>
            <left-margin>13.29</left-margin>
            <right-margin>0.00</right-margin>
            </system-margins>
          <system-distance>129.30</system-distance>
          </system-layout>
        <staff-layout number="2">
          <staff-distance>72.70</staff-distance>
          </staff-layout>
        </print>
      <note default-x="94.75" default-y="-30.00">
        <pitch>
          <step>C</step>
          <octave>4</octave>
          </pitch>
        <duration>2</duration>
        <voice>1</voice>
        <type>eighth</type>
        <stem>down</stem>
        <staff>1</staff>
        <beam number="1">begin</beam>
        <notations>
          <technical>
            <string>3</string>
            <fret>0</fret>
            </technical>
          <arpeggiate default-x="-12.60" default-y="5.30"/>
          </notations>
        </note>
      <note default-x="94.75" default-y="-15.00">
        <chord/>
        <pitch>
          <step>G</step>
          <octave>4</octave>
          </pitch>
        <duration>2</duration>
        <voice>1</voice>
        <type>eighth</type>
        <stem>down</stem>
        <staff>1</staff>
        <notations>
          <technical>
            <string>2</string>
            <fret>3</fret>
            </technical>
          <arpeggiate default-x="-12.60" default-y="5.30"/>
          </notations>
        </note>
      <note default-x="94.75" default-y="-45.00">
        <chord/>
        <pitch>
          <step>G</step>
          <octave>4</octave>
          </pitch>
        <duration>2</duration>
        <voice>1</voice>
        <type>eighth</type>
        <stem>down</stem>
        <staff>1</staff>
        <notations>
          <technical>
            <string>4</string>
            <fret>0</fret>
            </technical>
          <arpeggiate default-x="-12.60" default-y="5.30"/>
          </notations>
        </note>
      <note default-x="94.75" default-y="0.00">
        <chord/>
        <pitch>
          <step>B</step>
          <octave>4</octave>
          </pitch>
        <duration>2</duration>
        <voice>1</voice>
        <type>eighth</type>
        <stem>down</stem>
        <staff>1</staff>
        <notations>
          <technical>
            <string>1</string>
            <fret>2</fret>
            </technical>
          <arpeggiate default-x="-12.60" default-y="5.30"/>
          </notations>
        </note>
      <note default-x="157.81" default-y="-30.00">
        <pitch>
          <step>C</step>
          <octave>4</octave>
          </pitch>
        <duration>2</duration>
        <voice>1</voice>
        <type>eighth</type>
        <stem>down</stem>
        <staff>1</staff>
        <beam number="1">end</beam>
        <notations>
          <technical>
            <string>3</string>
            <fret>0</fret>
            </technical>
          </notations>
        </note>
      <note default-x="220.86" default-y="-15.00">
        <pitch>
          <step>G</step>
          <octave>4</octave>
          </pitch>
        <duration>2</duration>
        <voice>1</voice>
        <type>eighth</type>
        <stem>down</stem>
        <staff>1</staff>
        <beam number="1">begin</beam>
        <notations>
          <technical>
            <string>2</string>
            <fret>3</fret>
            </technical>
          </notations>
        </note>
      <note default-x="283.91" default-y="0.00">
        <pitch>
          <step>E</step>
          <octave>5</octave>
          </pitch>
        <duration>2</duration>
        <voice>1</voice>
        <type>eighth</type>
        <stem>down</stem>
        <staff>1</staff>
        <beam number="1">end</beam>
        <notations>
          <technical>
            <string>1</string>
            <fret>7</fret>
            </technical>
          </notations>
        </note>
      <note default-x="346.96" default-y="-30.00">
        <pitch>
          <step>D</step>
          <octave>4</octave>
          </pitch>
        <duration>2</duration>
        <voice>1</voice>
        <type>eighth</type>
        <stem>down</stem>
        <staff>1</staff>
        <beam number="1">begin</beam>
        <notations>
          <technical>
            <string>3</string>
            <fret>2</fret>
            </technical>
          <arpeggiate default-x="-12.60" default-y="5.30"/>
          </notations>
        </note>
      <note default-x="346.96" default-y="-15.00">
        <chord/>
        <pitch>
          <step>F</step>
          <alter>1</alter>
          <octave>4</octave>
          </pitch>
        <duration>2</duration>
        <voice>1</voice>
        <type>eighth</type>
        <stem>down</stem>
        <staff>1</staff>
        <notations>
          <technical>
            <string>2</string>
            <fret>2</fret>
            </technical>
          <arpeggiate default-x="-12.60" default-y="5.30"/>
          </notations>
        </note>
      <note default-x="346.96" default-y="-45.00">
        <chord/>
        <pitch>
          <step>G</step>
          <octave>4</octave>
          </pitch>
        <duration>2</duration>
        <voice>1</voice>
        <type>eighth</type>
        <stem>down</stem>
        <staff>1</staff>
        <notations>
          <technical>
            <string>4</string>
            <fret>0</fret>
            </technical>
          <arpeggiate default-x="-12.60" default-y="5.30"/>
          </notations>
        </note>
      <note default-x="346.96" default-y="0.00">
        <chord/>
        <pitch>
          <step>D</step>
          <octave>5</octave>
          </pitch>
        <duration>2</duration>
        <voice>1</voice>
        <type>eighth</type>
        <stem>down</stem>
        <staff>1</staff>
        <notations>
          <technical>
            <string>1</string>
            <fret>5</fret>
            </technical>
          <arpeggiate default-x="-12.60" default-y="5.30"/>
          </notations>
        </note>
      <note default-x="410.02" default-y="-30.00">
        <pitch>
          <step>D</step>
          <octave>4</octave>
          </pitch>
        <duration>2</duration>
        <voice>1</voice>
        <type>eighth</type>
        <stem>down</stem>
        <staff>1</staff>
        <beam number="1">end</beam>
        <notations>
          <technical>
            <string>3</string>
            <fret>2</fret>
            </technical>
          </notations>
        </note>
      <direction placement="above">
        <direction-type>
          <words relative-y="10.00">◇</words>
          </direction-type>
        <staff>1</staff>
        </direction>
      <note default-x="468.57" default-y="-45.00">
        <pitch>
          <step>G</step>
          <octave>5</octave>
          </pitch>
        <duration>2</duration>
        <voice>1</voice>
        <type>eighth</type>
        <stem>down</stem>
        <notehead>diamond</notehead>
        <staff>1</staff>
        <beam number="1">begin</beam>
        <notations>
          <technical>
            <string>4</string>
            <fret>12</fret>
            </technical>
          </notations>
        </note>
      <note default-x="536.12" default-y="-15.00">
        <pitch>
          <step>F</step>
          <alter>1</alter>
          <octave>4</octave>
          </pitch>
        <duration>2</duration>
        <voice>1</voice>
        <type>eighth</type>
        <stem>down</stem>
        <staff>1</staff>
        <beam number="1">end</beam>
        <notations>
          <technical>
            <string>2</string>
            <fret>2</fret>
            </technical>
          </notations>
        </note>
      <backup>
        <duration>16</duration>
        </backup>
      <note default-x="91.75" default-y="-167.70">
        <pitch>
          <step>C</step>
          <octave>4</octave>
          </pitch>
        <duration>2</duration>
        <voice>5</voice>
        <type>eighth</type>
        <stem>up</stem>
        <staff>2</staff>
        <beam number="1">begin</beam>
        <notations>
          <arpeggiate default-x="-11.60" default-y="-14.70"/>
          </notations>
        </note>
      <note default-x="91.75" default-y="-147.70">
        <chord/>
        <pitch>
          <step>G</step>
          <octave>4</octave>
          </pitch>
        <duration>2</duration>
        <voice>5</voice>
        <type>eighth</type>
        <stem>up</stem>
        <staff>2</staff>
        <notations>
          <arpeggiate default-x="-11.60" default-y="-14.70"/>
          </notations>
        </note>
      <note default-x="103.65" default-y="-147.70">
        <chord/>
        <pitch>
          <step>G</step>
          <octave>4</octave>
          </pitch>
        <duration>2</duration>
        <voice>5</voice>
        <type>eighth</type>
        <stem>up</stem>
        <staff>2</staff>
        <notations>
          <arpeggiate default-x="-11.60" default-y="-14.70"/>
          </notations>
        </note>
      <note default-x="91.75" default-y="-137.70">
        <chord/>
        <pitch>
          <step>B</step>
          <octave>4</octave>
          </pitch>
        <duration>2</duration>
        <voice>5</voice>
        <type>eighth</type>
        <stem>up</stem>
        <staff>2</staff>
        <notations>
          <arpeggiate default-x="-11.60" default-y="-14.70"/>
          </notations>
        </note>
      <note default-x="154.81" default-y="-167.70">
        <pitch>
          <step>C</step>
          <octave>4</octave>
          </pitch>
        <duration>2</duration>
        <voice>5</voice>
        <type>eighth</type>
        <stem>up</stem>
        <staff>2</staff>
        <beam number="1">end</beam>
        </note>
      <note default-x="217.86" default-y="-147.70">
        <pitch>
          <step>G</step>
          <octave>4</octave>
          </pitch>
        <duration>2</duration>
        <voice>5</voice>
        <type>eighth</type>
        <stem>down</stem>
        <staff>2</staff>
        <beam number="1">begin</beam>
        </note>
      <note default-x="280.91" default-y="-122.70">
        <pitch>
          <step>E</step>
          <octave>5</octave>
          </pitch>
        <duration>2</duration>
        <voice>5</voice>
        <type>eighth</type>
        <stem>down</stem>
        <staff>2</staff>
        <beam number="1">end</beam>
        </note>
      <note default-x="343.96" default-y="-162.70">
        <pitch>
          <step>D</step>
          <octave>4</octave>
          </pitch>
        <duration>2</duration>
        <voice>5</voice>
        <type>eighth</type>
        <stem>up</stem>
        <staff>2</staff>
        <beam number="1">begin</beam>
        <notations>
          <arpeggiate default-x="-11.60" default-y="-4.70"/>
          </notations>
        </note>
      <note default-x="343.96" default-y="-152.70">
        <chord/>
        <pitch>
          <step>F</step>
          <alter>1</alter>
          <octave>4</octave>
          </pitch>
        <duration>2</duration>
        <voice>5</voice>
        <type>eighth</type>
        <stem>up</stem>
        <staff>2</staff>
        <notations>
          <arpeggiate default-x="-11.60" default-y="-4.70"/>
          </notations>
        </note>
      <note default-x="355.86" default-y="-147.70">
        <chord/>
        <pitch>
          <step>G</step>
          <octave>4</octave>
          </pitch>
        <duration>2</duration>
        <voice>5</voice>
        <type>eighth</type>
        <stem>up</stem>
        <staff>2</staff>
        <notations>
          <arpeggiate default-x="-11.60" default-y="-4.70"/>
          </notations>
        </note>
      <note default-x="343.96" default-y="-127.70">
        <chord/>
        <pitch>
          <step>D</step>
          <octave>5</octave>
          </pitch>
        <duration>2</duration>
        <voice>5</voice>
        <type>eighth</type>
        <stem>up</stem>
        <staff>2</staff>
        <notations>
          <arpeggiate default-x="-11.60" default-y="-4.70"/>
          </notations>
        </note>
      <note default-x="407.02" default-y="-162.70">
        <pitch>
          <step>D</step>
          <octave>4</octave>
          </pitch>
        <duration>2</duration>
        <voice>5</voice>
        <type>eighth</type>
        <stem>up</stem>
        <staff>2</staff>
        <beam number="1">end</beam>
        </note>
      <note default-x="470.07" default-y="-112.70">
        <pitch>
          <step>G</step>
          <octave>5</octave>
          </pitch>
        <duration>2</duration>
        <voice>5</voice>
        <type>eighth</type>
        <stem>down</stem>
        <notehead>diamond</notehead>
        <staff>2</staff>
        <beam number="1">begin</beam>
        </note>
      <note default-x="533.12" default-y="-152.70">
        <pitch>
          <step>F</step>
          <alter>1</alter>
          <octave>4</octave>
          </pitch>
        <duration>2</duration>
        <voice>5</voice>
        <type>eighth</type>
        <stem>down</stem>
        <staff>2</staff>
        <beam number="1">end</beam>
        </note>
      </measure>
    <measure number="3" width="383.94">
      <direction placement="above">
        <direction-type>
          <words relative-y="10.00">◇</words>
          </direction-type>
        <staff>1</staff>
        </direction>
      <note default-x="15.00" default-y="-30.00">
        <pitch>
          <step>C</step>
          <octave>5</octave>
          </pitch>
        <duration>4</duration>
        <voice>1</voice>
        <type>quarter</type>
        <stem>down</stem>
        <notehead>diamond</notehead>
        <staff>1</staff>
        <notations>
          <technical>
            <string>3</string>
            <fret>12</fret>
            </technical>
          </notations>
        </note>
      <note default-x="15.00" default-y="-15.00">
        <chord/>
        <pitch>
          <step>E</step>
          <octave>5</octave>
          </pitch>
        <duration>4</duration>
        <voice>1</voice>
        <type>quarter</type>
        <stem>down</stem>
        <notehead>diamond</notehead>
        <staff>1</staff>
        <notations>
          <technical>
            <string>2</string>
            <fret>12</fret>
            </technical>
          </notations>
        </note>
      <direction placement="above">
        <direction-type>
          <words relative-y="10.00">◇</words>
          </direction-type>
        <staff>1</staff>
        </direction>
      <note default-x="95.84" default-y="-45.00">
        <pitch>
          <step>G</step>
          <octave>5</octave>
          </pitch>
        <duration>2</duration>
        <voice>1</voice>
        <type>eighth</type>
        <stem>down</stem>
        <notehead>diamond</notehead>
        <staff>1</staff>
        <beam number="1">begin</beam>
        <notations>
          <technical>
            <string>4</string>
            <fret>12</fret>
            </technical>
          </notations>
        </note>
      <direction placement="above">
        <direction-type>
          <words default-y="1.64" relative-x="-8.00" relative-y="10.00" font-size="8">A.H.</words>
          </direction-type>
        <staff>1</staff>
        </direction>
      <note default-x="154.63" default-y="0.00">
        <pitch>
          <step>C</step>
          <octave>6</octave>
          </pitch>
        <duration>2</duration>
        <voice>1</voice>
        <type>eighth</type>
        <stem>down</stem>
        <staff>1</staff>
        <beam number="1">end</beam>
        <notations>
          <technical>
            <string>1</string>
            <fret>15</fret>
            </technical>
          </notations>
        </note>
      <direction placement="above">
        <direction-type>
          <words default-y="1.64" relative-x="-8.00" relative-y="10.00" font-size="8">A.H.</words>
          </direction-type>
        <staff>1</staff>
        </direction>
      <note default-x="213.42" default-y="0.00">
        <pitch>
          <step>B</step>
          <octave>5</octave>
          </pitch>
        <duration>6</duration>
        <voice>1</voice>
        <type>quarter</type>
        <dot/>
        <stem>down</stem>
        <staff>1</staff>
        <notations>
          <technical>
            <string>1</string>
            <fret>14</fret>
            </technical>
          </notations>
        </note>
      <note default-x="311.65" default-y="0.00">
        <pitch>
          <step>A</step>
          <octave>4</octave>
          </pitch>
        <duration>1</duration>
        <voice>1</voice>
        <type>16th</type>
        <stem>down</stem>
        <staff>1</staff>
        <beam number="1">begin</beam>
        <beam number="2">begin</beam>
        <notations>
          <technical>
            <string>1</string>
            <fret>0</fret>
            </technical>
          </notations>
        </note>
      <note default-x="348.39" default-y="-45.00">
        <pitch>
          <step>G</step>
          <octave>4</octave>
          </pitch>
        <duration>1</duration>
        <voice>1</voice>
        <type>16th</type>
        <stem>down</stem>
        <staff>1</staff>
        <beam number="1">end</beam>
        <beam number="2">end</beam>
        <notations>
          <technical>
            <string>4</string>
            <fret>0</fret>
            </technical>
          </notations>
        </note>
      <backup>
        <duration>16</duration>
        </backup>
      <note default-x="16.50" default-y="-132.70">
        <pitch>
          <step>C</step>
          <octave>5</octave>
          </pitch>
        <duration>4</duration>
        <voice>5</voice>
        <type>quarter</type>
        <stem>down</stem>
        <notehead>diamond</notehead>
        <staff>2</staff>
        </note>
      <note default-x="16.50" default-y="-122.70">
        <chord/>
        <pitch>
          <step>E</step>
          <octave>5</octave>
          </pitch>
        <duration>4</duration>
        <voice>5</voice>
        <type>quarter</type>
        <stem>down</stem>
        <notehead>diamond</notehead>
        <staff>2</staff>
        </note>
      <note default-x="97.34" default-y="-112.70">
        <pitch>
          <step>G</step>
          <octave>5</octave>
          </pitch>
        <duration>2</duration>
        <voice>5</voice>
        <type>eighth</type>
        <stem>down</stem>
        <notehead>diamond</notehead>
        <staff>2</staff>
        <beam number="1">begin</beam>
        </note>
      <note default-x="156.13" default-y="-97.70">
        <pitch>
          <step>C</step>
          <octave>6</octave>
          </pitch>
        <duration>2</duration>
        <voice>5</voice>
        <type>eighth</type>
        <stem>down</stem>
        <staff>2</staff>
        <beam number="1">end</beam>
        </note>
      <note default-x="214.92" default-y="-102.70">
        <pitch>
          <step>B</step>
          <octave>5</octave>
          </pitch>
        <duration>6</duration>
        <voice>5</voice>
        <type>quarter</type>
        <dot/>
        <stem>down</stem>
        <staff>2</staff>
        </note>
      <note default-x="308.65" default-y="-142.70">
        <pitch>
          <step>A</step>
          <octave>4</octave>
          </pitch>
        <duration>1</duration>
        <voice>5</voice>
        <type>16th</type>
        <stem>up</stem>
        <staff>2</staff>
        <beam number="1">begin</beam>
        <beam number="2">begin</beam>
        </note>
      <note default-x="345.39" default-y="-147.70">
        <pitch>
          <step>G</step>
          <octave>4</octave>
          </pitch>
        <duration>1</duration>
        <voice>5</voice>
        <type>16th</type>
        <stem>up</stem>
        <staff>2</staff>
        <beam number="1">end</beam>
        <beam number="2">end</beam>
        </note>
      </measure>
    <measure number="4" width="981.91">
      <print new-system="yes">
        <system-layout>
          <system-margins>
            <left-margin>13.29</left-margin>
            <right-margin>0.00</right-margin>
            </system-margins>
          <system-distance>129.30</system-distance>
          </system-layout>
        <staff-layout number="2">
          <staff-distance>60.12</staff-distance>
          </staff-layout>
        </print>
      <note default-x="93.77" default-y="-30.00">
        <pitch>
          <step>E</step>
          <alter>-1</alter>
          <octave>4</octave>
          </pitch>
        <duration>2</duration>
        <voice>1</voice>
        <type>eighth</type>
        <stem>down</stem>
        <staff>1</staff>
        <beam number="1">begin</beam>
        <notations>
          <technical>
            <string>3</string>
            <fret>3</fret>
            </technical>
          </notations>
        </note>
      <note default-x="93.77" default-y="-15.00">
        <chord/>
        <pitch>
          <step>F</step>
          <alter>1</alter>
          <octave>4</octave>
          </pitch>
        <duration>2</duration>
        <voice>1</voice>
        <type>eighth</type>
        <stem>down</stem>
        <staff>1</staff>
        <notations>
          <technical>
            <string>2</string>
            <fret>2</fret>
            </technical>
          </notations>
        </note>
      <note default-x="192.59" default-y="-30.00">
        <pitch>
          <step>E</step>
          <alter>-1</alter>
          <octave>4</octave>
          </pitch>
        <duration>1</duration>
        <voice>1</voice>
        <type>16th</type>
        <stem>down</stem>
        <staff>1</staff>
        <beam number="1">continue</beam>
        <beam number="2">begin</beam>
        <notations>
          <technical>
            <string>3</string>
            <fret>3</fret>
            </technical>
          </notations>
        </note>
      <note default-x="254.35" default-y="-15.00">
        <pitch>
          <step>F</step>
          <alter>1</alter>
          <octave>4</octave>
          </pitch>
        <duration>1</duration>
        <voice>1</voice>
        <type>16th</type>
        <stem>down</stem>
        <staff>1</staff>
        <beam number="1">end</beam>
        <beam number="2">end</beam>
        <notations>
          <technical>
            <string>2</string>
            <fret>2</fret>
            </technical>
          </notations>
        </note>
      <note default-x="316.11" default-y="-45.00">
        <pitch>
          <step>A</step>
          <octave>4</octave>
          </pitch>
        <duration>1</duration>
        <voice>1</voice>
        <type>16th</type>
        <stem>down</stem>
        <staff>1</staff>
        <beam number="1">begin</beam>
        <beam number="2">begin</beam>
        <notations>
          <technical>
            <string>4</string>
            <fret>2</fret>
            </technical>
          </notations>
        </note>
      <note default-x="377.87" default-y="-30.00">
        <pitch>
          <step>E</step>
          <alter>-1</alter>
          <octave>4</octave>
          </pitch>
        <duration>1</duration>
        <voice>1</voice>
        <type>16th</type>
        <stem>down</stem>
        <staff>1</staff>
        <beam number="1">continue</beam>
        <beam number="2">continue</beam>
        <notations>
          <technical>
            <string>3</string>
            <fret>3</fret>
            </technical>
          </notations>
        </note>
      <note default-x="439.63" default-y="-15.00">
        <pitch>
          <step>F</step>
          <alter>1</alter>
          <octave>4</octave>
          </pitch>
        <duration>1</duration>
        <voice>1</voice>
        <type>16th</type>
        <stem>down</stem>
        <staff>1</staff>
        <beam number="1">continue</beam>
        <beam number="2">continue</beam>
        <notations>
          <technical>
            <string>2</string>
            <fret>2</fret>
            </technical>
          </notations>
        </note>
      <note default-x="501.39" default-y="-45.00">
        <pitch>
          <step>A</step>
          <octave>4</octave>
          </pitch>
        <duration>1</duration>
        <voice>1</voice>
        <type>16th</type>
        <stem>down</stem>
        <staff>1</staff>
        <beam number="1">end</beam>
        <beam number="2">end</beam>
        <notations>
          <technical>
            <string>4</string>
            <fret>2</fret>
            </technical>
          </notations>
        </note>
      <note default-x="563.15" default-y="-30.00">
        <pitch>
          <step>E</step>
          <alter>-1</alter>
          <octave>4</octave>
          </pitch>
        <duration>2</duration>
        <voice>1</voice>
        <type>eighth</type>
        <stem>down</stem>
        <staff>1</staff>
        <beam number="1">begin</beam>
        <notations>
          <technical>
            <string>3</string>
            <fret>3</fret>
            </technical>
          <arpeggiate default-x="-12.60" default-y="5.30"/>
          </notations>
        </note>
      <note default-x="563.15" default-y="-15.00">
        <chord/>
        <pitch>
          <step>F</step>
          <alter>1</alter>
          <octave>4</octave>
          </pitch>
        <duration>2</duration>
        <voice>1</voice>
        <type>eighth</type>
        <stem>down</stem>
        <staff>1</staff>
        <notations>
          <technical>
            <string>2</string>
            <fret>2</fret>
            </technical>
          <arpeggiate default-x="-12.60" default-y="5.30"/>
          </notations>
        </note>
      <note default-x="563.15" default-y="-45.00">
        <chord/>
        <pitch>
          <step>A</step>
          <octave>4</octave>
          </pitch>
        <duration>2</duration>
        <voice>1</voice>
        <type>eighth</type>
        <stem>down</stem>
        <staff>1</staff>
        <notations>
          <technical>
            <string>4</string>
            <fret>2</fret>
            </technical>
          <arpeggiate default-x="-12.60" default-y="5.30"/>
          </notations>
        </note>
      <note default-x="563.15" default-y="0.00">
        <chord/>
        <pitch>
          <step>B</step>
          <octave>4</octave>
          </pitch>
        <duration>2</duration>
        <voice>1</voice>
        <type>eighth</type>
        <stem>down</stem>
        <staff>1</staff>
        <notations>
          <technical>
            <string>1</string>
            <fret>2</fret>
            </technical>
          <arpeggiate default-x="-12.60" default-y="5.30"/>
          </notations>
        </note>
      <note default-x="661.96" default-y="-30.00">
        <pitch>
          <step>E</step>
          <alter>-1</alter>
          <octave>4</octave>
          </pitch>
        <duration>2</duration>
        <voice>1</voice>
        <type>eighth</type>
        <stem>down</stem>
        <staff>1</staff>
        <beam number="1">end</beam>
        <notations>
          <technical>
            <string>3</string>
            <fret>3</fret>
            </technical>
          </notations>
        </note>
      <note default-x="760.78" default-y="-30.00">
        <pitch>
          <step>E</step>
          <alter>-1</alter>
          <octave>4</octave>
          </pitch>
        <duration>2</duration>
        <voice>1</voice>
        <type>eighth</type>
        <stem>down</stem>
        <staff>1</staff>
        <beam number="1">begin</beam>
        <notations>
          <technical>
            <string>3</string>
            <fret>3</fret>
            </technical>
          <arpeggiate direction="up" default-x="-15.12" default-y="5.30"/>
          </notations>
        </note>
      <note default-x="760.78" default-y="-15.00">
        <chord/>
        <pitch>
          <step>F</step>
          <alter>1</alter>
          <octave>4</octave>
          </pitch>
        <duration>2</duration>
        <voice>1</voice>
        <type>eighth</type>
        <stem>down</stem>
        <staff>1</staff>
        <notations>
          <technical>
            <string>2</string>
            <fret>2</fret>
            </technical>
          <arpeggiate direction="up" default-x="-15.12" default-y="5.30"/>
          </notations>
        </note>
      <note default-x="760.78" default-y="-45.00">
        <chord/>
        <pitch>
          <step>A</step>
          <octave>4</octave>
          </pitch>
        <duration>2</duration>
        <voice>1</voice>
        <type>eighth</type>
        <stem>down</stem>
        <staff>1</staff>
        <notations>
          <technical>
            <string>4</string>
            <fret>2</fret>
            </technical>
          <arpeggiate direction="up" default-x="-15.12" default-y="5.30"/>
          </notations>
        </note>
      <note default-x="760.78" default-y="0.00">
        <chord/>
        <pitch>
          <step>B</step>
          <octave>4</octave>
          </pitch>
        <duration>2</duration>
        <voice>1</voice>
        <type>eighth</type>
        <stem>down</stem>
        <staff>1</staff>
        <notations>
          <technical>
            <string>1</string>
            <fret>2</fret>
            </technical>
          <arpeggiate direction="up" default-x="-15.12" default-y="5.30"/>
          </notations>
        </note>
      <note default-x="859.59" default-y="-30.00">
        <pitch>
          <step>E</step>
          <alter>-1</alter>
          <octave>4</octave>
          </pitch>
        <duration>1</duration>
        <voice>1</voice>
        <type>16th</type>
        <stem>down</stem>
        <staff>1</staff>
        <beam number="1">continue</beam>
        <beam number="2">begin</beam>
        <notations>
          <technical>
            <string>3</string>
            <fret>3</fret>
            </technical>
          <arpeggiate direction="up" default-x="-15.12" default-y="5.30"/>
          </notations>
        </note>
      <note default-x="859.59" default-y="-15.00">
        <chord/>
        <pitch>
          <step>F</step>
          <alter>1</alter>
          <octave>4</octave>
          </pitch>
        <duration>1</duration>
        <voice>1</voice>
        <type>16th</type>
        <stem>down</stem>
        <staff>1</staff>
        <notations>
          <technical>
            <string>2</string>
            <fret>2</fret>
            </technical>
          <arpeggiate direction="up" default-x="-15.12" default-y="5.30"/>
          </notations>
        </note>
      <note default-x="859.59" default-y="-45.00">
        <chord/>
        <pitch>
          <step>A</step>
          <octave>4</octave>
          </pitch>
        <duration>1</duration>
        <voice>1</voice>
        <type>16th</type>
        <stem>down</stem>
        <staff>1</staff>
        <notations>
          <technical>
            <string>4</string>
            <fret>2</fret>
            </technical>
          <arpeggiate direction="up" default-x="-15.12" default-y="5.30"/>
          </notations>
        </note>
      <note default-x="859.59" default-y="0.00">
        <chord/>
        <pitch>
          <step>B</step>
          <octave>4</octave>
          </pitch>
        <duration>1</duration>
        <voice>1</voice>
        <type>16th</type>
        <stem>down</stem>
        <staff>1</staff>
        <notations>
          <technical>
            <string>1</string>
            <fret>2</fret>
            </technical>
          <arpeggiate direction="up" default-x="-15.12" default-y="5.30"/>
          </notations>
        </note>
      <note default-x="921.35" default-y="-30.00">
        <pitch>
          <step>E</step>
          <alter>-1</alter>
          <octave>4</octave>
          </pitch>
        <duration>1</duration>
        <voice>1</voice>
        <type>16th</type>
        <stem>down</stem>
        <staff>1</staff>
        <beam number="1">end</beam>
        <beam number="2">end</beam>
        <notations>
          <technical>
            <string>3</string>
            <fret>3</fret>
            </technical>
          <arpeggiate direction="down" default-x="-15.12" default-y="5.30"/>
          </notations>
        </note>
      <note default-x="921.35" default-y="-15.00">
        <chord/>
        <pitch>
          <step>F</step>
          <alter>1</alter>
          <octave>4</octave>
          </pitch>
        <duration>1</duration>
        <voice>1</voice>
        <type>16th</type>
        <stem>down</stem>
        <staff>1</staff>
        <notations>
          <technical>
            <string>2</string>
            <fret>2</fret>
            </technical>
          <arpeggiate direction="down" default-x="-15.12" default-y="5.30"/>
          </notations>
        </note>
      <note default-x="921.35" default-y="-45.00">
        <chord/>
        <pitch>
          <step>A</step>
          <octave>4</octave>
          </pitch>
        <duration>1</duration>
        <voice>1</voice>
        <type>16th</type>
        <stem>down</stem>
        <staff>1</staff>
        <notations>
          <technical>
            <string>4</string>
            <fret>2</fret>
            </technical>
          <arpeggiate direction="down" default-x="-15.12" default-y="5.30"/>
          </notations>
        </note>
      <note default-x="921.35" default-y="0.00">
        <chord/>
        <pitch>
          <step>B</step>
          <octave>4</octave>
          </pitch>
        <duration>1</duration>
        <voice>1</voice>
        <type>16th</type>
        <stem>down</stem>
        <staff>1</staff>
        <notations>
          <technical>
            <string>1</string>
            <fret>2</fret>
            </technical>
          <arpeggiate direction="down" default-x="-15.12" default-y="5.30"/>
          </notations>
        </note>
      <backup>
        <duration>16</duration>
        </backup>
      <note default-x="90.77" default-y="-145.12">
        <pitch>
          <step>E</step>
          <alter>-1</alter>
          <octave>4</octave>
          </pitch>
        <duration>2</duration>
        <voice>5</voice>
        <type>eighth</type>
        <accidental>flat</accidental>
        <stem>up</stem>
        <staff>2</staff>
        <beam number="1">begin</beam>
        </note>
      <note default-x="102.67" default-y="-140.12">
        <chord/>
        <pitch>
          <step>F</step>
          <alter>1</alter>
          <octave>4</octave>
          </pitch>
        <duration>2</duration>
        <voice>5</voice>
        <type>eighth</type>
        <stem>up</stem>
        <staff>2</staff>
        </note>
      <note default-x="189.59" default-y="-145.12">
        <pitch>
          <step>E</step>
          <alter>-1</alter>
          <octave>4</octave>
          </pitch>
        <duration>1</duration>
        <voice>5</voice>
        <type>16th</type>
        <stem>up</stem>
        <staff>2</staff>
        <beam number="1">continue</beam>
        <beam number="2">begin</beam>
        </note>
      <note default-x="251.35" default-y="-140.12">
        <pitch>
          <step>F</step>
          <alter>1</alter>
          <octave>4</octave>
          </pitch>
        <duration>1</duration>
        <voice>5</voice>
        <type>16th</type>
        <stem>up</stem>
        <staff>2</staff>
        <beam number="1">end</beam>
        <beam number="2">end</beam>
        </note>
      <note default-x="313.11" default-y="-130.12">
        <pitch>
          <step>A</step>
          <octave>4</octave>
          </pitch>
        <duration>1</duration>
        <voice>5</voice>
        <type>16th</type>
        <stem>up</stem>
        <staff>2</staff>
        <beam number="1">begin</beam>
        <beam number="2">begin</beam>
        </note>
      <note default-x="374.87" default-y="-145.12">
        <pitch>
          <step>E</step>
          <alter>-1</alter>
          <octave>4</octave>
          </pitch>
        <duration>1</duration>
        <voice>5</voice>
        <type>16th</type>
        <stem>up</stem>
        <staff>2</staff>
        <beam number="1">continue</beam>
        <beam number="2">continue</beam>
        </note>
      <note default-x="436.63" default-y="-140.12">
        <pitch>
          <step>F</step>
          <alter>1</alter>
          <octave>4</octave>
          </pitch>
        <duration>1</duration>
        <voice>5</voice>
        <type>16th</type>
        <stem>up</stem>
        <staff>2</staff>
        <beam number="1">continue</beam>
        <beam number="2">continue</beam>
        </note>
      <note default-x="498.39" default-y="-130.12">
        <pitch>
          <step>A</step>
          <octave>4</octave>
          </pitch>
        <duration>1</duration>
        <voice>5</voice>
        <type>16th</type>
        <stem>up</stem>
        <staff>2</staff>
        <beam number="1">end</beam>
        <beam number="2">end</beam>
        </note>
      <note default-x="560.15" default-y="-145.12">
        <pitch>
          <step>E</step>
          <alter>-1</alter>
          <octave>4</octave>
          </pitch>
        <duration>2</duration>
        <voice>5</voice>
        <type>eighth</type>
        <stem>up</stem>
        <staff>2</staff>
        <beam number="1">begin</beam>
        <notations>
          <arpeggiate default-x="-11.60" default-y="-14.70"/>
          </notations>
        </note>
      <note default-x="572.04" default-y="-140.12">
        <chord/>
        <pitch>
          <step>F</step>
          <alter>1</alter>
          <octave>4</octave>
          </pitch>
        <duration>2</duration>
        <voice>5</voice>
        <type>eighth</type>
        <stem>up</stem>
        <staff>2</staff>
        <notations>
          <arpeggiate default-x="-11.60" default-y="-14.70"/>
          </notations>
        </note>
      <note default-x="560.15" default-y="-130.12">
        <chord/>
        <pitch>
          <step>A</step>
          <octave>4</octave>
          </pitch>
        <duration>2</duration>
        <voice>5</voice>
        <type>eighth</type>
        <stem>up</stem>
        <staff>2</staff>
        <notations>
          <arpeggiate default-x="-11.60" default-y="-14.70"/>
          </notations>
        </note>
      <note default-x="572.04" default-y="-125.12">
        <chord/>
        <pitch>
          <step>B</step>
          <octave>4</octave>
          </pitch>
        <duration>2</duration>
        <voice>5</voice>
        <type>eighth</type>
        <stem>up</stem>
        <staff>2</staff>
        <notations>
          <arpeggiate default-x="-11.60" default-y="-14.70"/>
          </notations>
        </note>
      <note default-x="658.96" default-y="-145.12">
        <pitch>
          <step>E</step>
          <alter>-1</alter>
          <octave>4</octave>
          </pitch>
        <duration>2</duration>
        <voice>5</voice>
        <type>eighth</type>
        <stem>up</stem>
        <staff>2</staff>
        <beam number="1">end</beam>
        </note>
      <note default-x="757.78" default-y="-145.12">
        <pitch>
          <step>E</step>
          <alter>-1</alter>
          <octave>4</octave>
          </pitch>
        <duration>2</duration>
        <voice>5</voice>
        <type>eighth</type>
        <stem>up</stem>
        <staff>2</staff>
        <beam number="1">begin</beam>
        <notations>
          <arpeggiate direction="up" default-x="-14.12" default-y="-14.70"/>
          </notations>
        </note>
      <note default-x="769.67" default-y="-140.12">
        <chord/>
        <pitch>
          <step>F</step>
          <alter>1</alter>
          <octave>4</octave>
          </pitch>
        <duration>2</duration>
        <voice>5</voice>
        <type>eighth</type>
        <stem>up</stem>
        <staff>2</staff>
        <notations>
          <arpeggiate direction="up" default-x="-14.12" default-y="-14.70"/>
          </notations>
        </note>
      <note default-x="757.78" default-y="-130.12">
        <chord/>
        <pitch>
          <step>A</step>
          <octave>4</octave>
          </pitch>
        <duration>2</duration>
        <voice>5</voice>
        <type>eighth</type>
        <stem>up</stem>
        <staff>2</staff>
        <notations>
          <arpeggiate direction="up" default-x="-14.12" default-y="-14.70"/>
          </notations>
        </note>
      <note default-x="769.67" default-y="-125.12">
        <chord/>
        <pitch>
          <step>B</step>
          <octave>4</octave>
          </pitch>
        <duration>2</duration>
        <voice>5</voice>
        <type>eighth</type>
        <stem>up</stem>
        <staff>2</staff>
        <notations>
          <arpeggiate direction="up" default-x="-14.12" default-y="-14.70"/>
          </notations>
        </note>
      <note default-x="856.59" default-y="-145.12">
        <pitch>
          <step>E</step>
          <alter>-1</alter>
          <octave>4</octave>
          </pitch>
        <duration>1</duration>
        <voice>5</voice>
        <type>16th</type>
        <stem>up</stem>
        <staff>2</staff>
        <beam number="1">continue</beam>
        <beam number="2">begin</beam>
        <notations>
          <arpeggiate direction="up" default-x="-14.12" default-y="-14.70"/>
          </notations>
        </note>
      <note default-x="868.49" default-y="-140.12">
        <chord/>
        <pitch>
          <step>F</step>
          <alter>1</alter>
          <octave>4</octave>
          </pitch>
        <duration>1</duration>
        <voice>5</voice>
        <type>16th</type>
        <stem>up</stem>
        <staff>2</staff>
        <notations>
          <arpeggiate direction="up" default-x="-14.12" default-y="-14.70"/>
          </notations>
        </note>
      <note default-x="856.59" default-y="-130.12">
        <chord/>
        <pitch>
          <step>A</step>
          <octave>4</octave>
          </pitch>
        <duration>1</duration>
        <voice>5</voice>
        <type>16th</type>
        <stem>up</stem>
        <staff>2</staff>
        <notations>
          <arpeggiate direction="up" default-x="-14.12" default-y="-14.70"/>
          </notations>
        </note>
      <note default-x="868.49" default-y="-125.12">
        <chord/>
        <pitch>
          <step>B</step>
          <octave>4</octave>
          </pitch>
        <duration>1</duration>
        <voice>5</voice>
        <type>16th</type>
        <stem>up</stem>
        <staff>2</staff>
        <notations>
          <arpeggiate direction="up" default-x="-14.12" default-y="-14.70"/>
          </notations>
        </note>
      <note default-x="918.35" default-y="-145.12">
        <pitch>
          <step>E</step>
          <alter>-1</alter>
          <octave>4</octave>
          </pitch>
        <duration>1</duration>
        <voice>5</voice>
        <type>16th</type>
        <stem>up</stem>
        <staff>2</staff>
        <beam number="1">end</beam>
        <beam number="2">end</beam>
        <notations>
          <arpeggiate direction="down" default-x="-14.12" default-y="-14.70"/>
          </notations>
        </note>
      <note default-x="930.25" default-y="-140.12">
        <chord/>
        <pitch>
          <step>F</step>
          <alter>1</alter>
          <octave>4</octave>
          </pitch>
        <duration>1</duration>
        <voice>5</voice>
        <type>16th</type>
        <stem>up</stem>
        <staff>2</staff>
        <notations>
          <arpeggiate direction="down" default-x="-14.12" default-y="-14.70"/>
          </notations>
        </note>
      <note default-x="918.35" default-y="-130.12">
        <chord/>
        <pitch>
          <step>A</step>
          <octave>4</octave>
          </pitch>
        <duration>1</duration>
        <voice>5</voice>
        <type>16th</type>
        <stem>up</stem>
        <staff>2</staff>
        <notations>
          <arpeggiate direction="down" default-x="-14.12" default-y="-14.70"/>
          </notations>
        </note>
      <note default-x="930.25" default-y="-125.12">
        <chord/>
        <pitch>
          <step>B</step>
          <octave>4</octave>
          </pitch>
        <duration>1</duration>
        <voice>5</voice>
        <type>16th</type>
        <stem>up</stem>
        <staff>2</staff>
        <notations>
          <arpeggiate direction="down" default-x="-14.12" default-y="-14.70"/>
          </notations>
        </note>
      </measure>
    <measure number="5" width="981.91">
      <print new-system="yes">
        <system-layout>
          <system-margins>
            <left-margin>13.29</left-margin>
            <right-margin>0.00</right-margin>
            </system-margins>
          <system-distance>129.30</system-distance>
          </system-layout>
        <staff-layout number="2">
          <staff-distance>62.60</staff-distance>
          </staff-layout>
        </print>
      <note default-x="94.75" default-y="-30.00">
        <pitch>
          <step>E</step>
          <octave>4</octave>
          </pitch>
        <duration>2</duration>
        <voice>1</voice>
        <type>eighth</type>
        <stem>down</stem>
        <staff>1</staff>
        <beam number="1">begin</beam>
        <notations>
          <technical>
            <string>3</string>
            <fret>4</fret>
            </technical>
          <arpeggiate default-x="-12.60" default-y="5.30"/>
          </notations>
        </note>
      <note default-x="94.75" default-y="-15.00">
        <chord/>
        <pitch>
          <step>G</step>
          <octave>4</octave>
          </pitch>
        <duration>2</duration>
        <voice>1</voice>
        <type>eighth</type>
        <stem>down</stem>
        <staff>1</staff>
        <notations>
          <technical>
            <string>2</string>
            <fret>3</fret>
            </technical>
          <arpeggiate default-x="-12.60" default-y="5.30"/>
          </notations>
        </note>
      <note default-x="94.75" default-y="-45.00">
        <chord/>
        <pitch>
          <step>G</step>
          <octave>4</octave>
          </pitch>
        <duration>2</duration>
        <voice>1</voice>
        <type>eighth</type>
        <stem>down</stem>
        <staff>1</staff>
        <notations>
          <technical>
            <string>4</string>
            <fret>0</fret>
            </technical>
          <arpeggiate default-x="-12.60" default-y="5.30"/>
          </notations>
        </note>
      <note default-x="94.75" default-y="0.00">
        <chord/>
        <pitch>
          <step>B</step>
          <octave>4</octave>
          </pitch>
        <duration>2</duration>
        <voice>1</voice>
        <type>eighth</type>
        <stem>down</stem>
        <staff>1</staff>
        <notations>
          <technical>
            <string>1</string>
            <fret>2</fret>
            </technical>
          <arpeggiate default-x="-12.60" default-y="5.30"/>
          </notations>
        </note>
      <note default-x="211.26" default-y="-30.00">
        <pitch>
          <step>E</step>
          <octave>4</octave>
          </pitch>
        <duration>2</duration>
        <voice>1</voice>
        <type>eighth</type>
        <stem>down</stem>
        <staff>1</staff>
        <beam number="1">end</beam>
        <notations>
          <technical>
            <string>3</string>
            <fret>4</fret>
            </technical>
          </notations>
        </note>
      <note default-x="327.76" default-y="-15.00">
        <pitch>
          <step>G</step>
          <octave>4</octave>
          </pitch>
        <duration>2</duration>
        <voice>1</voice>
        <type>eighth</type>
        <stem>down</stem>
        <staff>1</staff>
        <beam number="1">begin</beam>
        <notations>
          <technical>
            <string>2</string>
            <fret>3</fret>
            </technical>
          </notations>
        </note>
      <note default-x="444.27" default-y="0.00">
        <pitch>
          <step>E</step>
          <octave>5</octave>
          </pitch>
        <duration>1</duration>
        <voice>1</voice>
        <type>16th</type>
        <stem>down</stem>
        <staff>1</staff>
        <beam number="1">continue</beam>
        <beam number="2">begin</beam>
        <notations>
          <technical>
            <string>1</string>
            <fret>7</fret>
            </technical>
          <slide line-type="solid" number="1" type="start" default-y="5.57"/>
          </notations>
        </note>
      <note default-x="517.09" default-y="0.00">
        <pitch>
          <step>D</step>
          <octave>5</octave>
          </pitch>
        <duration>1</duration>
        <voice>1</voice>
        <type>16th</type>
        <stem>down</stem>
        <staff>1</staff>
        <beam number="1">end</beam>
        <beam number="2">end</beam>
        <notations>
          <technical>
            <string>1</string>
            <fret>5</fret>
            </technical>
          <slide line-type="solid" number="1" type="stop"/>
          </notations>
        </note>
      <note default-x="589.90" default-y="-30.00">
        <pitch>
          <step>D</step>
          <octave>4</octave>
          </pitch>
        <duration>2</duration>
        <voice>1</voice>
        <type>eighth</type>
        <stem>down</stem>
        <staff>1</staff>
        <beam number="1">begin</beam>
        <notations>
          <technical>
            <string>3</string>
            <fret>2</fret>
            </technical>
          <arpeggiate default-x="-12.60" default-y="5.30"/>
          </notations>
        </note>
      <note default-x="589.90" default-y="-15.00">
        <chord/>
        <pitch>
          <step>F</step>
          <alter>1</alter>
          <octave>4</octave>
          </pitch>
        <duration>2</duration>
        <voice>1</voice>
        <type>eighth</type>
        <stem>down</stem>
        <staff>1</staff>
        <notations>
          <technical>
            <string>2</string>
            <fret>2</fret>
            </technical>
          <arpeggiate default-x="-12.60" default-y="5.30"/>
          </notations>
        </note>
      <note default-x="589.90" default-y="-45.00">
        <chord/>
        <pitch>
          <step>G</step>
          <octave>4</octave>
          </pitch>
        <duration>2</duration>
        <voice>1</voice>
        <type>eighth</type>
        <stem>down</stem>
        <staff>1</staff>
        <notations>
          <technical>
            <string>4</string>
            <fret>0</fret>
            </technical>
          <arpeggiate default-x="-12.60" default-y="5.30"/>
          </notations>
        </note>
      <note default-x="589.90" default-y="0.00">
        <chord/>
        <pitch>
          <step>B</step>
          <octave>4</octave>
          </pitch>
        <duration>2</duration>
        <voice>1</voice>
        <type>eighth</type>
        <stem>down</stem>
        <staff>1</staff>
        <notations>
          <technical>
            <string>1</string>
            <fret>2</fret>
            </technical>
          <arpeggiate default-x="-12.60" default-y="5.30"/>
          </notations>
        </note>
      <note default-x="706.41" default-y="-30.00">
        <pitch>
          <step>D</step>
          <octave>4</octave>
          </pitch>
        <duration>2</duration>
        <voice>1</voice>
        <type>eighth</type>
        <stem>down</stem>
        <staff>1</staff>
        <beam number="1">end</beam>
        <notations>
          <technical>
            <string>3</string>
            <fret>2</fret>
            </technical>
          </notations>
        </note>
      <note default-x="822.92" default-y="-15.00">
        <pitch>
          <step>F</step>
          <alter>1</alter>
          <octave>4</octave>
          </pitch>
        <duration>4</duration>
        <voice>1</voice>
        <type>quarter</type>
        <stem>down</stem>
        <staff>1</staff>
        <notations>
          <technical>
            <string>2</string>
            <fret>2</fret>
            </technical>
          </notations>
        </note>
      <backup>
        <duration>16</duration>
        </backup>
      <note default-x="91.75" default-y="-147.60">
        <pitch>
          <step>E</step>
          <octave>4</octave>
          </pitch>
        <duration>2</duration>
        <voice>5</voice>
        <type>eighth</type>
        <stem>up</stem>
        <staff>2</staff>
        <beam number="1">begin</beam>
        <notations>
          <arpeggiate default-x="-11.60" default-y="-14.70"/>
          </notations>
        </note>
      <note default-x="91.75" default-y="-137.60">
        <chord/>
        <pitch>
          <step>G</step>
          <octave>4</octave>
          </pitch>
        <duration>2</duration>
        <voice>5</voice>
        <type>eighth</type>
        <stem>up</stem>
        <staff>2</staff>
        <notations>
          <arpeggiate default-x="-11.60" default-y="-14.70"/>
          </notations>
        </note>
      <note default-x="103.65" default-y="-137.60">
        <chord/>
        <pitch>
          <step>G</step>
          <octave>4</octave>
          </pitch>
        <duration>2</duration>
        <voice>5</voice>
        <type>eighth</type>
        <stem>up</stem>
        <staff>2</staff>
        <notations>
          <arpeggiate default-x="-11.60" default-y="-14.70"/>
          </notations>
        </note>
      <note default-x="91.75" default-y="-127.60">
        <chord/>
        <pitch>
          <step>B</step>
          <octave>4</octave>
          </pitch>
        <duration>2</duration>
        <voice>5</voice>
        <type>eighth</type>
        <stem>up</stem>
        <staff>2</staff>
        <notations>
          <arpeggiate default-x="-11.60" default-y="-14.70"/>
          </notations>
        </note>
      <note default-x="208.26" default-y="-147.60">
        <pitch>
          <step>E</step>
          <octave>4</octave>
          </pitch>
        <duration>2</duration>
        <voice>5</voice>
        <type>eighth</type>
        <stem>up</stem>
        <staff>2</staff>
        <beam number="1">end</beam>
        </note>
      <note default-x="324.76" default-y="-137.60">
        <pitch>
          <step>G</step>
          <octave>4</octave>
          </pitch>
        <duration>2</duration>
        <voice>5</voice>
        <type>eighth</type>
        <stem>down</stem>
        <staff>2</staff>
        <beam number="1">begin</beam>
        </note>
      <note default-x="441.27" default-y="-112.60">
        <pitch>
          <step>E</step>
          <octave>5</octave>
          </pitch>
        <duration>1</duration>
        <voice>5</voice>
        <type>16th</type>
        <stem>down</stem>
        <staff>2</staff>
        <beam number="1">continue</beam>
        <beam number="2">begin</beam>
        <notations>
          <slide line-type="solid" number="1" type="start" default-y="-113.22"/>
          </notations>
        </note>
      <note default-x="514.09" default-y="-117.60">
        <pitch>
          <step>D</step>
          <octave>5</octave>
          </pitch>
        <duration>1</duration>
        <voice>5</voice>
        <type>16th</type>
        <stem>down</stem>
        <staff>2</staff>
        <beam number="1">end</beam>
        <beam number="2">end</beam>
        <notations>
          <slide line-type="solid" number="1" type="stop"/>
          </notations>
        </note>
      <note default-x="586.90" default-y="-152.60">
        <pitch>
          <step>D</step>
          <octave>4</octave>
          </pitch>
        <duration>2</duration>
        <voice>5</voice>
        <type>eighth</type>
        <stem>up</stem>
        <staff>2</staff>
        <beam number="1">begin</beam>
        <notations>
          <arpeggiate default-x="-11.60" default-y="-14.70"/>
          </notations>
        </note>
      <note default-x="586.90" default-y="-142.60">
        <chord/>
        <pitch>
          <step>F</step>
          <alter>1</alter>
          <octave>4</octave>
          </pitch>
        <duration>2</duration>
        <voice>5</voice>
        <type>eighth</type>
        <stem>up</stem>
        <staff>2</staff>
        <notations>
          <arpeggiate default-x="-11.60" default-y="-14.70"/>
          </notations>
        </note>
      <note default-x="598.80" default-y="-137.60">
        <chord/>
        <pitch>
          <step>G</step>
          <octave>4</octave>
          </pitch>
        <duration>2</duration>
        <voice>5</voice>
        <type>eighth</type>
        <stem>up</stem>
        <staff>2</staff>
        <notations>
          <arpeggiate default-x="-11.60" default-y="-14.70"/>
          </notations>
        </note>
      <note default-x="586.90" default-y="-127.60">
        <chord/>
        <pitch>
          <step>B</step>
          <octave>4</octave>
          </pitch>
        <duration>2</duration>
        <voice>5</voice>
        <type>eighth</type>
        <stem>up</stem>
        <staff>2</staff>
        <notations>
          <arpeggiate default-x="-11.60" default-y="-14.70"/>
          </notations>
        </note>
      <note default-x="703.41" default-y="-152.60">
        <pitch>
          <step>D</step>
          <octave>4</octave>
          </pitch>
        <duration>2</duration>
        <voice>5</voice>
        <type>eighth</type>
        <stem>up</stem>
        <staff>2</staff>
        <beam number="1">end</beam>
        </note>
      <note default-x="819.92" default-y="-142.60">
        <pitch>
          <step>F</step>
          <alter>1</alter>
          <octave>4</octave>
          </pitch>
        <duration>4</duration>
        <voice>5</voice>
        <type>quarter</type>
        <stem>up</stem>
        <staff>2</staff>
        </note>
      </measure>
    <measure number="6" width="502.17">
      <print new-system="yes">
        <system-layout>
          <system-margins>
            <left-margin>13.29</left-margin>
            <right-margin>0.00</right-margin>
            </system-margins>
          <system-distance>129.30</system-distance>
          </system-layout>
        <staff-layout number="2">
          <staff-distance>62.53</staff-distance>
          </staff-layout>
        </print>
      <note default-x="94.75" default-y="-30.00">
        <pitch>
          <step>C</step>
          <octave>4</octave>
          </pitch>
        <duration>2</duration>
        <voice>1</voice>
        <type>eighth</type>
        <stem>down</stem>
        <staff>1</staff>
        <beam number="1">begin</beam>
        <notations>
          <technical>
            <string>3</string>
            <fret>0</fret>
            </technical>
          <arpeggiate default-x="-12.60" default-y="5.30"/>
          </notations>
        </note>
      <note default-x="94.75" default-y="-15.00">
        <chord/>
        <pitch>
          <step>G</step>
          <octave>4</octave>
          </pitch>
        <duration>2</duration>
        <voice>1</voice>
        <type>eighth</type>
        <stem>down</stem>
        <staff>1</staff>
        <notations>
          <technical>
            <string>2</string>
            <fret>3</fret>
            </technical>
          <arpeggiate default-x="-12.60" default-y="5.30"/>
          </notations>
        </note>
      <note default-x="94.75" default-y="-45.00">
        <chord/>
        <pitch>
          <step>G</step>
          <octave>4</octave>
          </pitch>
        <duration>2</duration>
        <voice>1</voice>
        <type>eighth</type>
        <stem>down</stem>
        <staff>1</staff>
        <notations>
          <technical>
            <string>4</string>
            <fret>0</fret>
            </technical>
          <arpeggiate default-x="-12.60" default-y="5.30"/>
          </notations>
        </note>
      <note default-x="94.75" default-y="0.00">
        <chord/>
        <pitch>
          <step>B</step>
          <octave>4</octave>
          </pitch>
        <duration>2</duration>
        <voice>1</voice>
        <type>eighth</type>
        <stem>down</stem>
        <staff>1</staff>
        <notations>
          <technical>
            <string>1</string>
            <fret>2</fret>
            </technical>
          <arpeggiate default-x="-12.60" default-y="5.30"/>
          </notations>
        </note>
      <note default-x="148.52" default-y="-30.00">
        <pitch>
          <step>C</step>
          <octave>4</octave>
          </pitch>
        <duration>2</duration>
        <voice>1</voice>
        <type>eighth</type>
        <stem>down</stem>
        <staff>1</staff>
        <beam number="1">end</beam>
        <notations>
          <technical>
            <string>3</string>
            <fret>0</fret>
            </technical>
          </notations>
        </note>
      <note default-x="202.28" default-y="-15.00">
        <pitch>
          <step>G</step>
          <octave>4</octave>
          </pitch>
        <duration>2</duration>
        <voice>1</voice>
        <type>eighth</type>
        <stem>down</stem>
        <staff>1</staff>
        <beam number="1">begin</beam>
        <notations>
          <technical>
            <string>2</string>
            <fret>3</fret>
            </technical>
          </notations>
        </note>
      <note default-x="256.05" default-y="-15.00">
        <pitch>
          <step>C</step>
          <octave>5</octave>
          </pitch>
        <duration>2</duration>
        <voice>1</voice>
        <type>eighth</type>
        <stem>down</stem>
        <staff>1</staff>
        <beam number="1">end</beam>
        <notations>
          <technical>
            <string>2</string>
            <fret>8</fret>
            </technical>
          </notations>
        </note>
      <note default-x="256.05" default-y="0.00">
        <chord/>
        <pitch>
          <step>E</step>
          <octave>5</octave>
          </pitch>
        <duration>2</duration>
        <voice>1</voice>
        <type>eighth</type>
        <stem>down</stem>
        <staff>1</staff>
        <notations>
          <technical>
            <string>1</string>
            <fret>7</fret>
            </technical>
          </notations>
        </note>
      <note default-x="305.31" default-y="-15.00">
        <pitch>
          <step>D</step>
          <octave>5</octave>
          </pitch>
        <duration>2</duration>
        <voice>1</voice>
        <type>eighth</type>
        <stem>down</stem>
        <staff>1</staff>
        <beam number="1">begin</beam>
        <notations>
          <technical>
            <string>2</string>
            <fret>10</fret>
            </technical>
          </notations>
        </note>
      <note default-x="309.81" default-y="0.00">
        <chord/>
        <pitch>
          <step>F</step>
          <alter>1</alter>
          <octave>5</octave>
          </pitch>
        <duration>2</duration>
        <voice>1</voice>
        <type>eighth</type>
        <stem>down</stem>
        <staff>1</staff>
        <notations>
          <technical>
            <string>1</string>
            <fret>9</fret>
            </technical>
          </notations>
        </note>
      <note default-x="359.08" default-y="-30.00">
        <pitch>
          <step>B</step>
          <octave>4</octave>
          </pitch>
        <duration>2</duration>
        <voice>1</voice>
        <type>eighth</type>
        <stem>down</stem>
        <staff>1</staff>
        <beam number="1">end</beam>
        <notations>
          <technical>
            <string>3</string>
            <fret>11</fret>
            </technical>
          </notations>
        </note>
      <note default-x="412.84" default-y="0.00">
        <pitch>
          <step>G</step>
          <octave>5</octave>
          </pitch>
        <duration>4</duration>
        <voice>1</voice>
        <type>quarter</type>
        <stem>down</stem>
        <staff>1</staff>
        <notations>
          <technical>
            <string>1</string>
            <fret>10</fret>
            </technical>
          </notations>
        </note>
      <backup>
        <duration>16</duration>
        </backup>
      <note default-x="91.75" default-y="-157.53">
        <pitch>
          <step>C</step>
          <octave>4</octave>
          </pitch>
        <duration>2</duration>
        <voice>5</voice>
        <type>eighth</type>
        <stem>up</stem>
        <staff>2</staff>
        <beam number="1">begin</beam>
        <notations>
          <arpeggiate default-x="-11.60" default-y="-14.70"/>
          </notations>
        </note>
      <note default-x="91.75" default-y="-137.53">
        <chord/>
        <pitch>
          <step>G</step>
          <octave>4</octave>
          </pitch>
        <duration>2</duration>
        <voice>5</voice>
        <type>eighth</type>
        <stem>up</stem>
        <staff>2</staff>
        <notations>
          <arpeggiate default-x="-11.60" default-y="-14.70"/>
          </notations>
        </note>
      <note default-x="103.65" default-y="-137.53">
        <chord/>
        <pitch>
          <step>G</step>
          <octave>4</octave>
          </pitch>
        <duration>2</duration>
        <voice>5</voice>
        <type>eighth</type>
        <stem>up</stem>
        <staff>2</staff>
        <notations>
          <arpeggiate default-x="-11.60" default-y="-14.70"/>
          </notations>
        </note>
      <note default-x="91.75" default-y="-127.53">
        <chord/>
        <pitch>
          <step>B</step>
          <octave>4</octave>
          </pitch>
        <duration>2</duration>
        <voice>5</voice>
        <type>eighth</type>
        <stem>up</stem>
        <staff>2</staff>
        <notations>
          <arpeggiate default-x="-11.60" default-y="-14.70"/>
          </notations>
        </note>
      <note default-x="145.52" default-y="-157.53">
        <pitch>
          <step>C</step>
          <octave>4</octave>
          </pitch>
        <duration>2</duration>
        <voice>5</voice>
        <type>eighth</type>
        <stem>up</stem>
        <staff>2</staff>
        <beam number="1">end</beam>
        </note>
      <note default-x="199.28" default-y="-137.53">
        <pitch>
          <step>G</step>
          <octave>4</octave>
          </pitch>
        <duration>2</duration>
        <voice>5</voice>
        <type>eighth</type>
        <stem>down</stem>
        <staff>2</staff>
        <beam number="1">begin</beam>
        </note>
      <note default-x="253.05" default-y="-122.53">
        <pitch>
          <step>C</step>
          <octave>5</octave>
          </pitch>
        <duration>2</duration>
        <voice>5</voice>
        <type>eighth</type>
        <stem>down</stem>
        <staff>2</staff>
        <beam number="1">end</beam>
        </note>
      <note default-x="253.05" default-y="-112.53">
        <chord/>
        <pitch>
          <step>E</step>
          <octave>5</octave>
          </pitch>
        <duration>2</duration>
        <voice>5</voice>
        <type>eighth</type>
        <stem>down</stem>
        <staff>2</staff>
        </note>
      <note default-x="306.81" default-y="-117.53">
        <pitch>
          <step>D</step>
          <octave>5</octave>
          </pitch>
        <duration>2</duration>
        <voice>5</voice>
        <type>eighth</type>
        <stem>down</stem>
        <staff>2</staff>
        <beam number="1">begin</beam>
        </note>
      <note default-x="306.81" default-y="-107.53">
        <chord/>
        <pitch>
          <step>F</step>
          <alter>1</alter>
          <octave>5</octave>
          </pitch>
        <duration>2</duration>
        <voice>5</voice>
        <type>eighth</type>
        <stem>down</stem>
        <staff>2</staff>
        </note>
      <note default-x="360.58" default-y="-127.53">
        <pitch>
          <step>B</step>
          <octave>4</octave>
          </pitch>
        <duration>2</duration>
        <voice>5</voice>
        <type>eighth</type>
        <stem>down</stem>
        <staff>2</staff>
        <beam number="1">end</beam>
        </note>
      <note default-x="414.34" default-y="-102.53">
        <pitch>
          <step>G</step>
          <octave>5</octave>
          </pitch>
        <duration>4</duration>
        <voice>5</voice>
        <type>quarter</type>
        <stem>down</stem>
        <staff>2</staff>
        </note>
      </measure>
    <measure number="7" width="479.74">
      <note default-x="21.50" default-y="-30.00">
        <pitch>
          <step>C</step>
          <octave>4</octave>
          </pitch>
        <duration>2</duration>
        <voice>1</voice>
        <type>eighth</type>
        <stem>down</stem>
        <staff>1</staff>
        <beam number="1">begin</beam>
        <notations>
          <technical>
            <string>3</string>
            <fret>0</fret>
            </technical>
          </notations>
        </note>
      <note default-x="21.50" default-y="-15.00">
        <chord/>
        <pitch>
          <step>E</step>
          <octave>4</octave>
          </pitch>
        <duration>2</duration>
        <voice>1</voice>
        <type>eighth</type>
        <stem>down</stem>
        <staff>1</staff>
        <notations>
          <technical>
            <string>2</string>
            <fret>0</fret>
            </technical>
          </notations>
        </note>
      <note default-x="88.63" default-y="-15.00">
        <pitch>
          <step>E</step>
          <octave>4</octave>
          </pitch>
        <duration>2</duration>
        <voice>1</voice>
        <type>eighth</type>
        <stem>down</stem>
        <staff>1</staff>
        <beam number="1">end</beam>
        <notations>
          <technical>
            <string>2</string>
            <fret>0</fret>
            </technical>
          </notations>
        </note>
      <note default-x="155.75" default-y="-45.00">
        <pitch>
          <step>G</step>
          <octave>4</octave>
          </pitch>
        <duration>2</duration>
        <voice>1</voice>
        <type>eighth</type>
        <stem>down</stem>
        <staff>1</staff>
        <beam number="1">begin</beam>
        <notations>
          <technical>
            <string>4</string>
            <fret>0</fret>
            </technical>
          </notations>
        </note>
      <note default-x="222.88" default-y="0.00">
        <pitch>
          <step>C</step>
          <octave>5</octave>
          </pitch>
        <duration>2</duration>
        <voice>1</voice>
        <type>eighth</type>
        <stem>down</stem>
        <staff>1</staff>
        <beam number="1">end</beam>
        <notations>
          <technical>
            <string>1</string>
            <fret>3</fret>
            </technical>
          </notations>
        </note>
      <note default-x="290.01" default-y="-30.00">
        <pitch>
          <step>E</step>
          <alter>-1</alter>
          <octave>4</octave>
          </pitch>
        <duration>6</duration>
        <voice>1</voice>
        <type>quarter</type>
        <dot/>
        <stem>down</stem>
        <staff>1</staff>
        <notations>
          <technical>
            <string>3</string>
            <fret>3</fret>
            </technical>
          <arpeggiate default-x="-12.60" default-y="5.30"/>
          </notations>
        </note>
      <note default-x="290.01" default-y="-15.00">
        <chord/>
        <pitch>
          <step>F</step>
          <alter>1</alter>
          <octave>4</octave>
          </pitch>
        <duration>6</duration>
        <voice>1</voice>
        <type>quarter</type>
        <dot/>
        <stem>down</stem>
        <staff>1</staff>
        <notations>
          <technical>
            <string>2</string>
            <fret>2</fret>
            </technical>
          <arpeggiate default-x="-12.60" default-y="5.30"/>
          </notations>
        </note>
      <note default-x="290.01" default-y="0.00">
        <chord/>
        <pitch>
          <step>B</step>
          <octave>4</octave>
          </pitch>
        <duration>6</duration>
        <voice>1</voice>
        <type>quarter</type>
        <dot/>
        <stem>down</stem>
        <staff>1</staff>
        <notations>
          <technical>
            <string>1</string>
            <fret>2</fret>
            </technical>
          <arpeggiate default-x="-12.60" default-y="5.30"/>
          </notations>
        </note>
      <note default-x="397.04" default-y="0.00">
        <pitch>
          <step>A</step>
          <octave>4</octave>
          </pitch>
        <duration>1</duration>
        <voice>1</voice>
        <type>16th</type>
        <stem>down</stem>
        <staff>1</staff>
        <beam number="1">begin</beam>
        <beam number="2">begin</beam>
        <notations>
          <technical>
            <string>1</string>
            <fret>0</fret>
            </technical>
          </notations>
        </note>
      <note default-x="438.99" default-y="-45.00">
        <pitch>
          <step>G</step>
          <octave>4</octave>
          </pitch>
        <duration>1</duration>
        <voice>1</voice>
        <type>16th</type>
        <stem>down</stem>
        <staff>1</staff>
        <beam number="1">end</beam>
        <beam number="2">end</beam>
        <notations>
          <technical>
            <string>4</string>
            <fret>0</fret>
            </technical>
          </notations>
        </note>
      <backup>
        <duration>16</duration>
        </backup>
      <note default-x="18.50" default-y="-157.53">
        <pitch>
          <step>C</step>
          <octave>4</octave>
          </pitch>
        <duration>2</duration>
        <voice>5</voice>
        <type>eighth</type>
        <stem>up</stem>
        <staff>2</staff>
        <beam number="1">begin</beam>
        </note>
      <note default-x="18.50" default-y="-147.53">
        <chord/>
        <pitch>
          <step>E</step>
          <octave>4</octave>
          </pitch>
        <duration>2</duration>
        <voice>5</voice>
        <type>eighth</type>
        <stem>up</stem>
        <staff>2</staff>
        </note>
      <note default-x="85.63" default-y="-147.53">
        <pitch>
          <step>E</step>
          <octave>4</octave>
          </pitch>
        <duration>2</duration>
        <voice>5</voice>
        <type>eighth</type>
        <stem>up</stem>
        <staff>2</staff>
        <beam number="1">end</beam>
        </note>
      <note default-x="152.75" default-y="-137.53">
        <pitch>
          <step>G</step>
          <octave>4</octave>
          </pitch>
        <duration>2</duration>
        <voice>5</voice>
        <type>eighth</type>
        <stem>up</stem>
        <staff>2</staff>
        <beam number="1">begin</beam>
        </note>
      <note default-x="219.88" default-y="-122.53">
        <pitch>
          <step>C</step>
          <octave>5</octave>
          </pitch>
        <duration>2</duration>
        <voice>5</voice>
        <type>eighth</type>
        <stem>up</stem>
        <staff>2</staff>
        <beam number="1">end</beam>
        </note>
      <note default-x="287.01" default-y="-147.53">
        <pitch>
          <step>E</step>
          <alter>-1</alter>
          <octave>4</octave>
          </pitch>
        <duration>6</duration>
        <voice>5</voice>
        <type>quarter</type>
        <dot/>
        <accidental>flat</accidental>
        <stem>up</stem>
        <staff>2</staff>
        <notations>
          <arpeggiate default-x="-24.42" default-y="-14.70"/>
          </notations>
        </note>
      <note default-x="298.91" default-y="-142.53">
        <chord/>
        <pitch>
          <step>F</step>
          <alter>1</alter>
          <octave>4</octave>
          </pitch>
        <duration>6</duration>
        <voice>5</voice>
        <type>quarter</type>
        <dot/>
        <stem>up</stem>
        <staff>2</staff>
        <notations>
          <arpeggiate default-x="-24.42" default-y="-14.70"/>
          </notations>
        </note>
      <note default-x="287.01" default-y="-127.53">
        <chord/>
        <pitch>
          <step>B</step>
          <octave>4</octave>
          </pitch>
        <duration>6</duration>
        <voice>5</voice>
        <type>quarter</type>
        <dot/>
        <stem>up</stem>
        <staff>2</staff>
        <notations>
          <arpeggiate default-x="-24.42" default-y="-14.70"/>
          </notations>
        </note>
      <note default-x="394.04" default-y="-132.53">
        <pitch>
          <step>A</step>
          <octave>4</octave>
          </pitch>
        <duration>1</duration>
        <voice>5</voice>
        <type>16th</type>
        <stem>up</stem>
        <staff>2</staff>
        <beam number="1">begin</beam>
        <beam number="2">begin</beam>
        </note>
      <note default-x="435.99" default-y="-137.53">
        <pitch>
          <step>G</step>
          <octave>4</octave>
          </pitch>
        <duration>1</duration>
        <voice>5</voice>
        <type>16th</type>
        <stem>up</stem>
        <staff>2</staff>
        <beam number="1">end</beam>
        <beam number="2">end</beam>
        </note>
      </measure>
    <measure number="8" width="393.00">
      <print new-page="yes">
        <system-layout>
          <system-margins>
            <left-margin>47.00</left-margin>
            <right-margin>588.91</right-margin>
            </system-margins>
          <top-system-distance>70.00</top-system-distance>
          </system-layout>
        <staff-layout number="2">
          <staff-distance>95.00</staff-distance>
          </staff-layout>
        </print>
      <note default-x="94.73" default-y="-30.00">
        <pitch>
          <step>E</step>
          <alter>-1</alter>
          <octave>4</octave>
          </pitch>
        <duration>16</duration>
        <voice>1</voice>
        <type>whole</type>
        <staff>1</staff>
        <notations>
          <technical>
            <string>3</string>
            <fret>3</fret>
            </technical>
          </notations>
        </note>
      <note default-x="94.73" default-y="-15.00">
        <chord/>
        <pitch>
          <step>F</step>
          <alter>1</alter>
          <octave>4</octave>
          </pitch>
        <duration>16</duration>
        <voice>1</voice>
        <type>whole</type>
        <staff>1</staff>
        <notations>
          <technical>
            <string>2</string>
            <fret>2</fret>
            </technical>
          </notations>
        </note>
      <backup>
        <duration>16</duration>
        </backup>
      <note default-x="90.77" default-y="-180.00">
        <pitch>
          <step>E</step>
          <alter>-1</alter>
          <octave>4</octave>
          </pitch>
        <duration>16</duration>
        <voice>5</voice>
        <type>whole</type>
        <accidental>flat</accidental>
        <staff>2</staff>
        </note>
      <note default-x="104.59" default-y="-175.00">
        <chord/>
        <pitch>
          <step>F</step>
          <alter>1</alter>
          <octave>4</octave>
          </pitch>
        <duration>16</duration>
        <voice>5</voice>
        <type>whole</type>
        <staff>2</staff>
        </note>
      <barline location="right">
        <bar-style>light-heavy</bar-style>
        </barline>
      </measure>
    </part>
  </score-partwise>
